<svg width="420" height="420" viewBox="0 0 420 420" fill="none" xmlns="http://www.w3.org/2000/svg">
<path d="M294.12 207.33C294.8 162.16 294.55 136.99 294.15 70.66C294.05 54.66 294.29 41.1 294.56 31C274.31 44.22 254.06 57.44 233.8 70.66C233.9 90.47 233.9 110.29 233.8 130.1C233.67 156.91 233.35 183.72 232.86 210.53C231.01 222.04 222.82 230.79 212.96 232.34C204.11 233.73 197.17 228.81 195.51 227.57V292.88C202.02 294.06 207.55 294.31 211.56 294.28C225.87 294.2 236.27 290.58 238.91 289.63C243.27 288.05 247.48 286.06 251.55 283.68C260.74 278.74 268.49 272.49 274.78 264.92C276.12 263.31 282.01 256.17 286.7 245.28C293.66 229.04 294.01 214.51 294.12 207.33Z" fill="#114D81"/>
<path d="M186.8 210.58C187.94 199.09 195.8 190.02 205.6 188.16C215.25 186.33 222.87 192.22 224.14 193.23V127.98C222.22 127.67 220.38 127.44 218.62 127.28C216.23 127.03 212.86 126.78 208.83 126.81C194.19 126.9 183.69 130.55 181.26 131.42C177.15 132.9 174.23 134.4 172.34 135.31C161.45 140.52 152.42 147.42 145.27 156.02C140.1 162.23 135.96 169.17 132.86 176.85C128.21 187.21 125.88 198.45 125.88 210.55C125.88 211.57 125.9 212.59 125.93 213.6C125.91 214.46 125.9 215.32 125.9 216.2C125.6 273.79 125.3 331.38 125 388.97C145.41 376.13 165.82 363.28 186.24 350.44V290.84C186.42 264.08 186.61 237.33 186.8 210.58Z" fill="black"/>
</svg>
